<svg width="256" height="256" viewBox="0 0 256 256" fill="none" xmlns="http://www.w3.org/2000/svg">
<path d="M63.3586 182.664C62.5906 182.472 61.9666 182.056 61.4866 181.416C61.0386 180.744 60.8146 179.992 60.8146 179.16V177.48C60.8146 176.84 61.0706 176.344 61.5826 175.992C62.1266 175.64 62.7026 175.576 63.3106 175.8C65.5186 176.536 67.6146 176.904 69.5986 176.904C71.5506 176.904 72.9906 176.312 73.9186 175.128C74.8466 173.944 75.3106 171.928 75.3106 169.08V150.696C75.3106 149.96 75.5666 149.32 76.0786 148.776C76.6226 148.232 77.2626 147.96 77.9986 147.96H80.9746C81.7106 147.96 82.3506 148.232 82.8946 148.776C83.4386 149.32 83.7106 149.96 83.7106 150.696V170.184C83.7106 174.92 82.6866 178.328 80.6386 180.408C78.5906 182.456 75.2946 183.48 70.7506 183.48C68.1586 183.48 65.6946 183.208 63.3586 182.664ZM110.695 155.064L107.191 168.84C107.159 168.936 107.175 169.032 107.239 169.128C107.335 169.192 107.431 169.224 107.527 169.224H113.959C114.055 169.224 114.135 169.192 114.199 169.128C114.295 169.032 114.327 168.936 114.295 168.84L110.791 155.064C110.791 155.032 110.775 155.016 110.743 155.016C110.711 155.016 110.695 155.032 110.695 155.064ZM97.8792 183C97.2072 183 96.6632 182.728 96.2472 182.184C95.8632 181.64 95.7832 181.048 96.0072 180.408L105.703 150.552C105.959 149.784 106.407 149.16 107.047 148.68C107.719 148.2 108.455 147.96 109.255 147.96H112.423C113.255 147.96 114.007 148.2 114.679 148.68C115.351 149.16 115.799 149.784 116.023 150.552L125.671 180.408C125.895 181.048 125.799 181.64 125.383 182.184C124.999 182.728 124.471 183 123.799 183H120.583C119.783 183 119.063 182.76 118.423 182.28C117.783 181.768 117.367 181.128 117.175 180.36L116.023 175.8C115.991 175.544 115.831 175.416 115.543 175.416H105.943C105.687 175.416 105.527 175.544 105.463 175.8L104.311 180.36C104.119 181.128 103.703 181.768 103.063 182.28C102.423 182.76 101.703 183 100.903 183H97.8792ZM143.098 183C142.362 183 141.722 182.728 141.178 182.184C140.666 181.64 140.41 181 140.41 180.264V150.696C140.41 149.96 140.666 149.32 141.178 148.776C141.722 148.232 142.362 147.96 143.098 147.96H146.65C147.386 147.96 148.01 148.232 148.522 148.776C149.066 149.32 149.338 149.96 149.338 150.696V180.264C149.338 181 149.066 181.64 148.522 182.184C148.01 182.728 147.386 183 146.65 183H143.098ZM169.698 183C168.962 183 168.322 182.728 167.778 182.184C167.234 181.64 166.962 181 166.962 180.264V150.696C166.962 149.96 167.234 149.32 167.778 148.776C168.322 148.232 168.962 147.96 169.698 147.96H172.05C173.874 147.96 175.202 148.76 176.034 150.36L186.114 169.416C186.114 169.448 186.13 169.464 186.162 169.464C186.194 169.464 186.21 169.448 186.21 169.416V150.696C186.21 149.96 186.482 149.32 187.026 148.776C187.57 148.232 188.21 147.96 188.946 147.96H191.298C192.034 147.96 192.674 148.232 193.218 148.776C193.762 149.32 194.034 149.96 194.034 150.696V180.264C194.034 181 193.762 181.64 193.218 182.184C192.674 182.728 192.034 183 191.298 183H188.946C187.122 183 185.794 182.2 184.962 180.6L174.882 161.544C174.882 161.512 174.866 161.496 174.834 161.496C174.802 161.496 174.786 161.512 174.786 161.544V180.264C174.786 181 174.514 181.64 173.97 182.184C173.426 182.728 172.786 183 172.05 183H169.698ZM72.2523 193.242V195H63.4633V200.625H71.8422V202.383H63.4633V208.242H72.4281V210H61.2953V193.242H72.2523ZM85.4078 201.621L78.8102 193.242H81.4469L86.7203 199.945L91.9937 193.242H94.6305L88.0445 201.621L94.6305 210H91.9937L86.7203 203.297L81.4469 210H78.8102L85.4078 201.621ZM101.833 210V193.242H108.63C112.052 193.242 113.762 194.738 113.762 197.73C113.762 200.988 111.423 202.977 106.743 203.695L106.298 201.867C109.735 201.359 111.454 200.012 111.454 197.824C111.454 195.965 110.446 195.035 108.43 195.035H104.001V210H101.833ZM123.145 201.574C123.145 206.098 125.188 208.359 129.273 208.359C133.273 208.359 135.273 206.098 135.273 201.574C135.273 197.113 133.273 194.883 129.273 194.883C125.188 194.883 123.145 197.113 123.145 201.574ZM120.859 201.645C120.859 195.965 123.664 193.125 129.273 193.125C134.797 193.125 137.559 195.965 137.559 201.645C137.559 207.293 134.797 210.117 129.273 210.117C123.664 210.117 120.859 207.293 120.859 201.645ZM145.769 210V193.242H152.917C156.105 193.242 157.698 194.582 157.698 197.262C157.698 199.441 156.14 201.055 153.023 202.102L158.777 210H155.917L150.585 202.465V201.047C153.788 200.539 155.39 199.309 155.39 197.355C155.39 195.809 154.499 195.035 152.718 195.035H147.937V210H145.769ZM177.182 193.242V195H171.909V210H169.741V195H164.467V193.242H177.182ZM184.338 209.414V207.422C186.095 208.047 187.994 208.359 190.033 208.359C192.916 208.359 194.357 207.305 194.357 205.195C194.357 203.398 193.295 202.5 191.17 202.5H189.013C185.505 202.5 183.752 200.977 183.752 197.93C183.752 194.727 185.998 193.125 190.49 193.125C192.443 193.125 194.259 193.359 195.939 193.828V195.82C194.259 195.195 192.443 194.883 190.49 194.883C187.443 194.883 185.92 195.898 185.92 197.93C185.92 199.727 186.951 200.625 189.013 200.625H191.17C194.74 200.625 196.525 202.148 196.525 205.195C196.525 208.477 194.361 210.117 190.033 210.117C187.994 210.117 186.095 209.883 184.338 209.414Z" fill="#000"/>
<mask id="mask0_1_21" style="mask-type:luminance" maskUnits="userSpaceOnUse" x="90" y="50" width="76" height="76">
<path d="M165.5 50.9688H90.5V125.116H165.5V50.9688Z" fill="white"/>
</mask>
<g mask="url(#mask0_1_21)">
<path d="M165.449 56.0714C165.063 58.5627 164.1 60.966 162.429 62.8494C159.153 66.7308 155.511 70.2649 151.573 73.4729C145.408 78.6964 139.037 83.6774 132.734 88.7321C128.49 91.9659 124.155 95.0796 119.837 98.212C117.821 100.06 115.841 102.407 112.778 102.056C108.496 100.914 109.932 95.4179 112.145 92.9432C115.481 88.7035 119.04 84.6412 122.668 80.6494C131.585 70.7927 147.865 51.2455 161.849 51.0061C164.397 51.4934 165.57 53.5504 165.449 56.0714Z" fill="#000"/>
<path d="M159.056 105.358C159.104 107.34 158.283 108.85 156.764 110.043C151.825 115.054 141.687 93.7425 139.295 90.1805C138.511 88.6027 138.434 86.4765 139.812 85.2741C142.507 82.892 145.229 80.5406 147.944 78.1811C149.73 76.3624 152.451 74.4629 153.979 77.6612C156.307 86.7193 158.315 96.0058 159.056 105.358Z" fill="#000"/>
<path d="M105.803 55.1119C105.98 51.9902 109.976 50.8689 112.563 51.6692C120.626 53.8998 128.665 56.3978 136.406 59.5605C137.976 60.4997 138.263 62.2455 136.989 63.5536C133.851 66.7523 130.542 69.7859 127.476 73.0568C126.43 74.1681 125.856 74.3406 124.594 73.5012C123.174 72.5562 121.773 71.5618 120.477 70.4552C116.99 66.9359 106.142 59.6294 105.803 55.1119Z" fill="#000"/>
<path d="M118.758 119.78C118.816 118.919 119.434 118.186 120.182 117.522C125.378 113.043 130.404 108.386 135.241 103.522C135.991 102.801 136.813 102.151 137.632 101.506C139.566 99.8446 141.704 102.264 139.851 103.984C134.314 109.465 128.693 114.862 123.187 120.374C121.996 121.905 118.765 122.56 118.758 119.78Z" fill="#000"/>
<path d="M111.068 71.3083C106.796 77.1774 101.115 82.0904 96.3347 87.6055C95.4079 88.5655 94.6353 89.7698 93.4178 90.3838C91.8867 91.2788 89.883 89.4479 90.7539 87.8756C91.0693 87.2403 91.5776 86.6778 92.0827 86.1637C96.5011 81.9774 100.522 77.4035 104.757 73.0374C106.253 71.7549 110.041 67.5301 111.068 71.3083Z" fill="#000"/>
<path d="M110.919 106.861C109.301 109.554 106.332 111.568 104.183 113.888C101.79 115.954 99.8421 118.685 97.0242 120.179C96.4061 120.464 95.7532 120.411 95.2333 119.894C94.1196 118.792 95.267 117.303 96.0836 116.428C99.8674 112.874 103.682 109.353 107.493 105.827C108.623 104.438 110.891 104.559 110.919 106.861Z" fill="#000"/>
<path d="M127.735 103.489C127.317 111.381 118.644 107.301 119.866 101.249C120.303 99.4917 122.256 98.6752 123.497 97.519C124.387 96.8259 125.376 97.1042 126.289 97.4239C127.511 98.1302 127.322 101.956 127.735 103.489Z" fill="#000"/>
<path d="M105.424 86.7512C106.839 83.001 110.912 83.2489 113.889 84.9818C117.628 87.0247 113.182 90.2269 111.555 92.1084C111.322 92.343 110.804 92.4877 110.482 92.4084C107.519 91.8329 106.155 89.5701 105.424 86.7512Z" fill="#000"/>
<path d="M140.34 125.075C138.066 125.187 137.543 122.944 138.944 121.62C139.726 120.898 140.508 120.176 141.275 119.438C142.937 117.837 144.587 116.224 146.248 114.621C146.898 113.929 148.044 113.615 148.73 114.345C149.475 115.019 149.196 116.165 148.507 116.826C146.778 118.704 145.043 120.576 143.312 122.452C142.544 123.394 141.382 124.649 140.34 125.075Z" fill="#000"/>
<path d="M96.3834 67.295C94.3891 67.3324 93.4778 65.3553 94.6461 64.0115C95.1103 63.4787 95.6529 63.0115 96.18 62.5367C97.5104 61.4052 98.7372 60.1192 100.166 59.1153C101.677 58.2041 103.405 59.9625 102.505 61.4657C101.113 63.2899 99.3355 64.8241 97.7336 66.4667C97.296 66.8856 96.6801 67.1185 96.3834 67.295Z" fill="#000"/>
</g>
<path d="M252 128C252 196.483 196.483 252 128 252C59.5167 252 4 196.483 4 128C4 59.5167 59.5167 4 128 4C196.483 4 252 59.5167 252 128Z" stroke="#000" stroke-width="8"/>
</svg>
