<svg width="256" height="256" viewBox="0 0 256 256" fill="none" xmlns="http://www.w3.org/2000/svg">
<path d="M252 128C252 196.483 196.483 252 128 252C59.5167 252 4 196.483 4 128C4 59.5167 59.5167 3.99997 128 3.99997C196.483 3.99997 252 59.5167 252 128Z" fill="#FFC700" stroke="black" stroke-width="8"/>
<path d="M63.3586 182.664C62.5906 182.472 61.9666 182.056 61.4866 181.416C61.0386 180.744 60.8146 179.992 60.8146 179.16V177.48C60.8146 176.84 61.0706 176.344 61.5826 175.992C62.1266 175.64 62.7026 175.576 63.3106 175.8C65.5186 176.536 67.6146 176.904 69.5986 176.904C71.5506 176.904 72.9906 176.312 73.9186 175.128C74.8466 173.944 75.3106 171.928 75.3106 169.08V150.696C75.3106 149.96 75.5666 149.32 76.0786 148.776C76.6226 148.232 77.2626 147.96 77.9986 147.96H80.9746C81.7106 147.96 82.3506 148.232 82.8946 148.776C83.4386 149.32 83.7106 149.96 83.7106 150.696V170.184C83.7106 174.92 82.6866 178.328 80.6386 180.408C78.5906 182.456 75.2946 183.48 70.7506 183.48C68.1586 183.48 65.6946 183.208 63.3586 182.664ZM110.695 155.064L107.191 168.84C107.159 168.936 107.175 169.032 107.239 169.128C107.335 169.192 107.431 169.224 107.527 169.224H113.959C114.055 169.224 114.135 169.192 114.199 169.128C114.295 169.032 114.327 168.936 114.295 168.84L110.791 155.064C110.791 155.032 110.775 155.016 110.743 155.016C110.711 155.016 110.695 155.032 110.695 155.064ZM97.8792 183C97.2072 183 96.6632 182.728 96.2472 182.184C95.8632 181.64 95.7832 181.048 96.0072 180.408L105.703 150.552C105.959 149.784 106.407 149.16 107.047 148.68C107.719 148.2 108.455 147.96 109.255 147.96H112.423C113.255 147.96 114.007 148.2 114.679 148.68C115.351 149.16 115.799 149.784 116.023 150.552L125.671 180.408C125.895 181.048 125.799 181.64 125.383 182.184C124.999 182.728 124.471 183 123.799 183H120.583C119.783 183 119.063 182.76 118.423 182.28C117.783 181.768 117.367 181.128 117.175 180.36L116.023 175.8C115.991 175.544 115.831 175.416 115.543 175.416H105.943C105.687 175.416 105.527 175.544 105.463 175.8L104.311 180.36C104.119 181.128 103.703 181.768 103.063 182.28C102.423 182.76 101.703 183 100.903 183H97.8792ZM143.098 183C142.362 183 141.722 182.728 141.178 182.184C140.666 181.64 140.41 181 140.41 180.264V150.696C140.41 149.96 140.666 149.32 141.178 148.776C141.722 148.232 142.362 147.96 143.098 147.96H146.65C147.386 147.96 148.01 148.232 148.522 148.776C149.066 149.32 149.338 149.96 149.338 150.696V180.264C149.338 181 149.066 181.64 148.522 182.184C148.01 182.728 147.386 183 146.65 183H143.098ZM169.698 183C168.962 183 168.322 182.728 167.778 182.184C167.234 181.64 166.962 181 166.962 180.264V150.696C166.962 149.96 167.234 149.32 167.778 148.776C168.322 148.232 168.962 147.96 169.698 147.96H172.05C173.874 147.96 175.202 148.76 176.034 150.36L186.114 169.416C186.114 169.448 186.13 169.464 186.162 169.464C186.194 169.464 186.21 169.448 186.21 169.416V150.696C186.21 149.96 186.482 149.32 187.026 148.776C187.57 148.232 188.21 147.96 188.946 147.96H191.298C192.034 147.96 192.674 148.232 193.218 148.776C193.762 149.32 194.034 149.96 194.034 150.696V180.264C194.034 181 193.762 181.64 193.218 182.184C192.674 182.728 192.034 183 191.298 183H188.946C187.122 183 185.794 182.2 184.962 180.6L174.882 161.544C174.882 161.512 174.866 161.496 174.834 161.496C174.802 161.496 174.786 161.512 174.786 161.544V180.264C174.786 181 174.514 181.64 173.97 182.184C173.426 182.728 172.786 183 172.05 183H169.698ZM72.768 193.242V195.914H64.3773V200.133H72.3695V202.91H64.3422V207.305H72.932V210H61.2953V193.242H72.768ZM85.7359 201.621L79.1383 193.242H83.0641L87.693 199.359L92.3219 193.242H96.2477L89.6617 201.621L96.2477 210H92.3219L87.693 203.883L83.0641 210H79.1383L85.7359 201.621ZM103.005 210V193.242H110.505C113.927 193.242 115.637 194.816 115.637 197.965C115.637 201.379 113.298 203.445 108.618 204.164L108.173 201.398C110.985 200.891 112.391 199.777 112.391 198.059C112.391 196.668 111.696 195.973 110.305 195.973H106.11V210H103.005ZM125.137 201.574C125.137 205.473 126.867 207.422 130.328 207.422C133.703 207.422 135.391 205.473 135.391 201.574C135.391 197.738 133.703 195.82 130.328 195.82C126.867 195.82 125.137 197.738 125.137 201.574ZM121.914 201.645C121.914 195.965 124.719 193.125 130.328 193.125C135.852 193.125 138.613 195.965 138.613 201.645C138.613 207.293 135.852 210.117 130.328 210.117C124.969 210.117 122.164 207.293 121.914 201.645ZM146.355 209.977V193.242H153.972C157.394 193.242 159.105 194.738 159.105 197.73C159.105 199.754 157.773 201.43 155.109 202.758L160.417 210H156.503L151.405 202.699V201.281C154.374 200.773 155.859 199.621 155.859 197.824C155.859 196.59 155.163 195.973 153.773 195.973H149.519V209.977H146.355ZM177.651 193.242V195.937H172.846V210H169.741V195.937H164.936V193.242H177.651ZM183.927 209.297V206.484C185.607 207.109 187.505 207.422 189.623 207.422C192.193 207.422 193.478 206.562 193.478 204.844C193.478 203.594 192.689 202.969 191.111 202.969H188.486C185.056 202.969 183.341 201.406 183.341 198.281C183.341 194.844 185.783 193.125 190.666 193.125C192.541 193.125 194.318 193.398 195.998 193.945V196.758C194.318 196.133 192.541 195.82 190.666 195.82C187.853 195.82 186.447 196.641 186.447 198.281C186.447 199.531 187.127 200.156 188.486 200.156H191.111C194.759 200.156 196.584 201.719 196.584 204.844C196.584 208.359 194.263 210.117 189.623 210.117C187.505 210.117 185.607 209.844 183.927 209.297Z" fill="black"/>
<path d="M118.257 80.6687C112.185 81.6666 107.049 83.1159 103.226 84.7796C101.875 85.3686 100.634 87.1268 100.514 88.5976C100.438 89.5667 100.398 90.5486 100.398 91.537C100.398 92.5245 100.438 93.5064 100.514 94.4755C100.633 95.9456 101.875 97.7045 103.226 98.2927C107.049 99.9588 112.182 101.407 118.257 102.405C119.711 102.644 120.787 101.611 120.686 100.141C120.49 97.2868 120.388 94.4011 120.388 91.5386C120.388 88.6752 120.49 85.7879 120.686 82.9358C120.787 81.4641 119.712 80.4318 118.257 80.6687Z" fill="black"/>
<path d="M123.563 125.387C124.94 125.92 125.612 125.162 125.114 123.774C123.635 119.644 122.494 114.769 121.704 109.54C121.485 108.082 120.154 106.75 118.695 106.531C113.467 105.74 108.591 104.598 104.461 103.118C103.074 102.622 102.314 103.295 102.847 104.67C106.531 114.155 114.083 121.707 123.563 125.387Z" fill="black"/>
<path d="M129.946 58.0647C128.28 61.8891 126.832 67.0195 125.835 73.0943C125.594 74.5499 126.625 75.6255 128.096 75.5239C130.951 75.327 133.837 75.2262 136.7 75.2262C139.564 75.2262 142.449 75.327 145.302 75.5239C146.773 75.6255 147.805 74.5499 147.565 73.0943C146.568 67.0227 145.118 61.8891 143.455 58.0647C142.866 56.7139 141.108 55.4727 139.637 55.3526C138.669 55.2734 137.687 55.2358 136.7 55.2358C135.71 55.2358 134.729 55.2758 133.759 55.3526C132.292 55.4735 130.534 56.7147 129.946 58.0647Z" fill="black"/>
<path d="M123.563 57.6878C114.083 61.3697 106.531 68.9218 102.848 78.4056C102.317 79.7804 103.074 80.4526 104.462 79.9565C108.592 78.4752 113.467 77.3364 118.695 76.5458C120.153 76.3257 121.485 74.9933 121.704 73.5352C122.495 68.3064 123.635 63.4312 125.115 59.3019C125.614 57.9134 124.94 57.1556 123.563 57.6878Z" fill="black"/>
<path d="M151.692 73.5344C151.911 74.9917 153.243 76.3241 154.702 76.545C159.929 77.3348 164.805 78.4744 168.935 79.9533C170.323 80.451 171.083 79.7772 170.548 78.4024C166.866 68.9202 159.316 61.3681 149.831 57.6862C148.457 57.154 147.785 57.9126 148.28 59.3003C149.761 63.4304 150.902 68.3064 151.692 73.5344Z" fill="black"/>
<path d="M172.883 88.6C172.765 87.1291 171.521 85.3702 170.17 84.782C166.347 83.1167 161.212 81.6698 155.14 80.6727C153.687 80.4326 152.61 81.4641 152.711 82.9358C152.907 85.7887 153.008 88.6768 153.008 91.5385C153.008 94.4019 152.907 97.2892 152.711 100.144C152.61 101.615 153.687 102.647 155.14 102.406C161.212 101.409 166.347 99.9588 170.17 98.2951C171.523 97.7069 172.764 95.9448 172.883 94.4771C172.964 93.5064 173 92.5261 173 91.5361C172.999 90.5494 172.959 89.5667 172.883 88.6Z" fill="black"/>
<path d="M149.004 91.537C149.004 88.3912 148.887 85.3566 148.667 82.4541C148.558 80.9848 147.25 79.6764 145.782 79.5675C142.879 79.3499 139.847 79.2306 136.698 79.2306C133.554 79.2306 130.518 79.3483 127.617 79.5675C126.147 79.678 124.838 80.9848 124.728 82.4541C124.51 85.3558 124.391 88.3912 124.391 91.537C124.391 94.682 124.509 97.7173 124.728 100.62C124.84 102.088 126.147 103.401 127.617 103.508C130.518 103.725 133.553 103.845 136.698 103.845C139.843 103.845 142.879 103.726 145.782 103.508C147.251 103.395 148.559 102.088 148.667 100.62C148.888 97.7173 149.004 94.6828 149.004 91.537Z" fill="black"/>
<path d="M168.935 103.12C164.806 104.603 159.931 105.741 154.702 106.532C153.244 106.75 151.912 108.083 151.692 109.542C150.902 114.768 149.761 119.646 148.282 123.775C147.785 125.162 148.458 125.924 149.832 125.389C159.316 121.707 166.868 114.155 170.55 104.673C171.083 103.296 170.324 102.624 168.935 103.12Z" fill="black"/>
<path d="M145.301 107.549C142.448 107.745 139.561 107.848 136.695 107.848C133.832 107.848 130.95 107.745 128.094 107.549C126.624 107.448 125.591 108.525 125.831 109.979C126.83 116.053 128.278 121.186 129.941 125.009C130.53 126.361 132.289 127.602 133.759 127.721C134.728 127.801 135.708 127.839 136.699 127.839C137.686 127.839 138.667 127.796 139.636 127.721C141.107 127.604 142.865 126.362 143.454 125.009C145.12 121.186 146.568 116.053 147.565 109.979C147.802 108.524 146.771 107.448 145.301 107.549Z" fill="black"/>
<path d="M108.707 47.7822C108.993 48.0007 109.233 47.9159 109.366 47.8222C109.27 47.9447 109.104 48.1863 108.851 48.6265C108.851 48.6265 107.952 49.9773 108.251 50.4295L108.256 50.4375C108.559 50.896 110.149 50.5999 110.149 50.5999C110.651 50.5399 110.939 50.4823 111.094 50.4439C110.952 50.5295 110.78 50.716 110.869 51.0617L111.678 53.7753C111.691 53.8161 111.708 53.8522 111.724 53.8874L113.855 52.0564L114.029 49.7508C114.042 49.574 114.079 49.3555 114.079 49.3555C114.079 49.3555 114.504 49.0658 114.637 49.0058L122.156 44.3851L126.086 55.7712C126.193 56.0753 126.476 56.1537 126.722 55.944L128.787 54.1755C129.033 53.9642 129.188 53.5361 129.134 53.2135L127.09 41.1033L134.288 36.0657C135.614 35.1334 136.672 33.7033 136.648 32.8639C136.638 32.5469 136.531 32.2252 136.358 31.9324L136.354 31.9252C136.154 31.6507 135.901 31.4242 135.61 31.2921C134.853 30.9416 133.117 31.3442 131.737 32.1948L124.268 36.8171L113.948 30.151C113.673 29.9765 113.221 29.9485 112.929 30.0918L110.49 31.2897C110.198 31.433 110.158 31.7235 110.395 31.9428L119.303 40.0525L112.087 45.1334C111.981 45.2326 111.546 45.5103 111.546 45.5103C111.546 45.5103 111.329 45.4551 111.161 45.3967L108.974 44.646L106.452 45.8824C106.478 45.9112 106.503 45.9408 106.539 45.9664L108.707 47.7822Z" fill="black"/>
<path d="M84.9551 85.1301C85.0775 84.0138 85.3088 82.939 85.5529 81.8091C85.6441 81.3865 85.7345 80.9656 85.8194 80.5447C85.913 79.9941 86.0771 79.4795 86.2515 78.9345C86.3387 78.6617 86.4252 78.3896 86.5044 78.1159L87.2494 75.7359C87.4759 75.2054 87.692 74.674 87.9072 74.1466C88.3242 73.1247 88.7171 72.1596 89.1628 71.2457L90.2672 69.1426C90.368 68.957 90.4737 68.7537 90.5785 68.5504C90.8234 68.0791 91.0538 67.6333 91.3131 67.2628C91.6372 66.7731 91.9261 66.3185 92.211 65.8696C92.7328 65.0477 93.2265 64.2707 93.7483 63.5632L96.2147 60.3902C96.7605 59.7788 97.335 59.1618 97.8872 58.568L98.6771 57.7166C99.2957 57.0043 99.9647 56.4034 100.611 55.8224L103.014 53.6593C103.844 53.0039 104.555 52.4677 105.136 52.03C105.329 51.8843 105.507 51.7499 105.671 51.625L106.67 52.9983C106.487 53.1263 106.289 53.2631 106.074 53.4112C105.456 53.8377 104.703 54.3579 103.858 54.9701L103.77 55.0389L101.512 56.9243C100.895 57.4309 100.196 58.0055 99.5109 58.7377L97.127 61.1113L97.0357 61.2105L94.5862 64.1042C94.0028 64.8252 93.4834 65.5719 92.9817 66.2945C92.696 66.7058 92.4055 67.1236 92.1022 67.5397C91.7469 67.9983 91.4572 68.5064 91.1779 68.9962C91.0802 69.1666 90.9826 69.3387 90.881 69.5083L89.7422 71.4682C89.2389 72.3989 88.8115 73.3304 88.3994 74.2306C88.1633 74.746 87.9248 75.2662 87.6728 75.7863L87.6071 75.9432L86.7933 78.2143C86.7069 78.4712 86.6244 78.6937 86.5428 78.9145C86.3387 79.4675 86.1067 80.0949 85.9674 80.7735C85.8834 81.1152 85.7794 81.513 85.6753 81.9131C85.4056 82.947 85.1287 84.0098 84.9551 85.1301Z" fill="black"/>
<path d="M106.003 49.3603C106.003 49.3603 105.638 49.638 104.953 50.159C104.268 50.6871 103.262 51.4226 101.982 52.4349C101.346 53.0079 100.641 53.6425 99.8734 54.3323C99.11 55.0237 98.2609 55.7544 97.4999 56.6314C96.7092 57.4901 95.8545 58.3896 94.9847 59.3635C94.1828 60.3958 93.3401 61.481 92.4599 62.6133C91.61 63.7649 90.8513 65.0589 90.0023 66.3441C89.5589 66.9763 89.2308 67.695 88.8515 68.396C88.4802 69.101 88.1049 69.8172 87.7248 70.5439C87.0069 72.0163 86.4219 73.6041 85.7457 75.1814C85.4888 76.0032 85.2296 76.8339 84.9663 77.6725C84.723 78.5152 84.3997 79.3427 84.25 80.2286C83.8979 81.9819 83.4354 83.7417 83.3073 85.5831C83.2193 86.5002 83.0777 87.4133 83.0353 88.34C83.0256 89.2698 83.0176 90.2045 83.008 91.1416C83.0144 91.6106 82.9792 92.0787 83.02 92.5485L83.1529 93.9569C83.2529 94.8964 83.3097 95.8407 83.4482 96.7762L84.0236 99.5651C84.1324 100.026 84.1868 100.501 84.3405 100.951L84.7806 102.308C85.0895 103.205 85.3376 104.124 85.6977 104.999L86.8805 107.58C87.235 108.457 87.7408 109.253 88.2337 110.052C88.7371 110.862 89.17 111.631 89.7286 112.462C90.2744 113.183 90.8177 113.9 91.3587 114.616C91.9605 115.316 92.5919 116.003 93.2025 116.689C94.4837 117.989 95.7865 119.215 97.191 120.28C99.9679 122.441 102.942 124.116 105.883 125.379C108.842 126.619 111.772 127.392 114.495 127.939C115.871 128.134 117.177 128.403 118.442 128.472C119.072 128.526 119.685 128.579 120.281 128.629C120.879 128.644 121.459 128.655 122.021 128.668C122.465 128.672 122.897 128.692 123.316 128.692C123.429 128.692 123.542 128.69 123.653 128.687C124.176 128.663 124.682 128.64 125.169 128.618C125.654 128.596 126.119 128.574 126.563 128.554C127.005 128.505 127.428 128.459 127.828 128.414C128.627 128.318 129.345 128.264 129.961 128.162C130.578 128.054 131.1 127.962 131.525 127.889C132.373 127.74 132.826 127.661 132.826 127.661C132.826 127.661 132.37 127.721 131.516 127.833C131.091 127.889 130.565 127.958 129.946 128.041C129.328 128.118 128.609 128.141 127.81 128.202C127.41 128.229 126.99 128.257 126.548 128.287C126.104 128.29 125.642 128.29 125.159 128.292C124.677 128.294 124.176 128.295 123.654 128.298C123.134 128.292 122.595 128.24 122.039 128.212C121.484 128.176 120.911 128.139 120.321 128.101C119.735 128.025 119.132 127.948 118.513 127.868C117.269 127.749 115.995 127.427 114.653 127.18C112.003 126.53 109.172 125.651 106.353 124.327C103.55 122.98 100.752 121.242 98.1825 119.063C96.8853 117.99 95.6849 116.756 94.5317 115.485C93.9924 114.827 93.449 114.164 92.9032 113.498C92.3926 112.761 91.8805 112.02 91.3651 111.278C89.6438 108.31 87.9592 105.074 87.1654 101.615L86.8053 100.335C86.6796 99.9116 86.65 99.4619 86.566 99.0274L86.1402 96.4137C86.049 95.5366 86.0362 94.6532 85.9794 93.7785L85.9082 92.4685C85.8874 92.0331 85.9434 91.5954 85.9562 91.1601C86.0002 90.291 86.0442 89.4259 86.089 88.5648C86.1651 87.7078 86.3371 86.8611 86.4523 86.016C86.6356 84.3187 87.1454 82.699 87.5351 81.0936C87.7015 80.2814 88.0417 79.5235 88.2993 78.7537C88.5746 77.9895 88.8451 77.2308 89.114 76.481C89.8094 75.0445 90.4056 73.6025 91.1266 72.2692C91.5084 71.613 91.8837 70.9656 92.2542 70.3278C92.6327 69.6964 92.9568 69.0466 93.3954 68.4792C94.2372 67.326 94.9783 66.1625 95.8089 65.1341C96.6612 64.1258 97.4799 63.1599 98.2585 62.2412C99.1108 61.3906 99.919 60.5855 100.68 59.8285C101.42 59.0386 102.194 58.44 102.89 57.8598C103.584 57.278 104.223 56.7451 104.799 56.2633C106.079 55.3358 107.145 54.6228 107.842 54.129C108.55 53.6385 108.927 53.3752 108.927 53.3752L106.003 49.3603Z" fill="black"/>
</svg>
